<svg width="18" height="19" viewBox="0 0 18 19" fill="none" xmlns="http://www.w3.org/2000/svg">
<path d="M13.5 2.75H4.5C3.225 2.75 2.25 3.725 2.25 5V14C2.25 15.275 3.225 16.25 4.5 16.25H13.5C14.775 16.25 15.75 15.275 15.75 14V5C15.75 3.725 14.775 2.75 13.5 2.75ZM9 7.25C10.275 7.25 11.25 8.225 11.25 9.5C11.25 10.775 10.275 11.75 9 11.75C7.725 11.75 6.75 10.775 6.75 9.5C6.75 8.225 7.725 7.25 9 7.25ZM11.85 5.75C11.85 5.225 12.3 4.85 12.75 4.85C13.2 4.85 13.65 5.3 13.65 5.75C13.65 6.2 13.275 6.65 12.75 6.65C12.225 6.65 11.85 6.275 11.85 5.75ZM13.5 14.75H4.5C4.05 14.75 3.75 14.45 3.75 14V9.5H5.25C5.25 11.6 6.9 13.25 9 13.25C11.1 13.25 12.75 11.6 12.75 9.5H14.25V14C14.25 14.45 13.95 14.75 13.5 14.75Z" fill="white"/>
</svg>
