<svg width="24" height="8" viewBox="0 0 24 8" fill="none" xmlns="http://www.w3.org/2000/svg">
<path d="M0 5.71729V5.33494H1.13991V5.71729C1.13991 5.8769 1.18875 6.00793 1.28642 6.11036C1.38648 6.2128 1.54251 6.26402 1.75454 6.26402C2.15952 6.26402 2.36201 6.06748 2.36201 5.67441V0.864624L3.54838 1.85088V5.74588C3.54838 6.21757 3.38638 6.60587 3.0624 6.9108C2.73841 7.21335 2.30841 7.36462 1.7724 7.36462C1.19828 7.36462 0.75875 7.21335 0.453821 6.9108C0.151274 6.60587 0 6.20804 0 5.71729Z" fill="white"/>
<path d="M6.19984 7.36462C5.64715 7.36462 5.19214 7.18357 4.8348 6.82147C4.47984 6.45698 4.30236 5.99363 4.30236 5.43142C4.30236 4.86206 4.47627 4.39633 4.82408 4.03422C5.17427 3.67212 5.62571 3.49107 6.1784 3.49107C6.75252 3.49107 7.20634 3.66616 7.53986 4.01636C7.87576 4.36655 8.04371 4.84062 8.04371 5.43857V5.72444L5.38868 5.73873C5.41964 5.97934 5.50422 6.15801 5.64239 6.27474C5.78056 6.39147 5.97352 6.44984 6.22128 6.44984C6.4333 6.44984 6.60958 6.41291 6.75014 6.33906C6.89307 6.26521 6.98479 6.16277 7.02529 6.03175H8.058C7.9913 6.43673 7.78999 6.76072 7.4541 7.00371C7.1182 7.24432 6.70011 7.36462 6.19984 7.36462ZM6.18554 4.40586C5.96161 4.40586 5.78651 4.45707 5.66025 4.55951C5.53399 4.66195 5.44823 4.82275 5.40297 5.04192H6.92523C6.92523 4.84657 6.85853 4.69173 6.72512 4.57738C6.59172 4.46303 6.41186 4.40586 6.18554 4.40586Z" fill="white"/>
<path d="M9.35157 7.26814L8.17235 3.15159L9.35871 3.60899L9.69461 4.8025C9.79229 5.14555 9.86852 5.49217 9.92331 5.84236C9.96857 5.56125 10.0567 5.21463 10.1877 4.8025L10.5594 3.60899H11.7172L12.0602 4.8025C12.1912 5.26228 12.2746 5.6089 12.3103 5.84236C12.3365 5.67322 12.4211 5.3266 12.564 4.8025L12.9178 3.60899L14.1078 3.15159L12.8285 7.26814H11.7815L11.4313 6.10322C11.2645 5.55291 11.1645 5.15865 11.1311 4.92042C11.0882 5.1515 10.9787 5.55411 10.8024 6.12823L10.4486 7.26814H9.35157Z" fill="white"/>
<path d="M16.1196 7.36462C15.5669 7.36462 15.1119 7.18357 14.7545 6.82147C14.3996 6.45698 14.2221 5.99363 14.2221 5.43142C14.2221 4.86206 14.396 4.39633 14.7438 4.03422C15.094 3.67212 15.5454 3.49107 16.0981 3.49107C16.6723 3.49107 17.1261 3.66616 17.4596 4.01636C17.7955 4.36655 17.9634 4.84062 17.9634 5.43857V5.72444L15.3084 5.73873C15.3394 5.97934 15.424 6.15801 15.5621 6.27474C15.7003 6.39147 15.8933 6.44984 16.141 6.44984C16.353 6.44984 16.5293 6.41291 16.6699 6.33906C16.8128 6.26521 16.9045 6.16277 16.945 6.03175H17.9777C17.911 6.43673 17.7097 6.76072 17.3738 7.00371C17.0379 7.24432 16.6198 7.36462 16.1196 7.36462ZM16.1053 4.40586C15.8813 4.40586 15.7063 4.45707 15.58 4.55951C15.4537 4.66195 15.368 4.82275 15.3227 5.04192H16.845C16.845 4.84657 16.7783 4.69173 16.6449 4.57738C16.5115 4.46303 16.3316 4.40586 16.1053 4.40586Z" fill="white"/>
<path d="M19.7573 7.26814H18.6317V1.75083L19.7573 0.864624V7.26814Z" fill="white"/>
<path d="M20.3397 6.11036H21.4082C21.4153 6.24139 21.4666 6.34263 21.5618 6.4141C21.6571 6.48557 21.7894 6.5213 21.9585 6.5213C22.1276 6.5213 22.2551 6.49391 22.3408 6.43912C22.4266 6.38194 22.4695 6.30452 22.4695 6.20684C22.4695 6.06153 22.3599 5.96624 22.1407 5.92097L21.4654 5.77446C21.1199 5.69823 20.8662 5.57793 20.7042 5.41355C20.5446 5.24679 20.4648 5.00619 20.4648 4.69173C20.4648 4.32009 20.6066 4.02708 20.8901 3.81267C21.1759 3.59827 21.544 3.49107 21.9942 3.49107C22.4207 3.49107 22.7673 3.60542 23.0341 3.83411C23.3009 4.06043 23.4343 4.35821 23.4343 4.72746H22.3659C22.3659 4.6012 22.3289 4.50115 22.2551 4.4273C22.1812 4.35106 22.0776 4.31295 21.9442 4.31295C21.8156 4.31295 21.7131 4.34273 21.6369 4.40228C21.563 4.46184 21.5261 4.54164 21.5261 4.6417C21.5261 4.79893 21.6571 4.90613 21.9192 4.9633L22.6017 5.10981C22.9138 5.1789 23.1461 5.29087 23.2985 5.44571C23.4534 5.60056 23.5308 5.81973 23.5308 6.10322C23.5308 6.48914 23.3807 6.79645 23.0805 7.02515C22.7828 7.25147 22.3933 7.36462 21.912 7.36462C21.4332 7.36462 21.0509 7.24908 20.765 7.018C20.4815 6.78693 20.3397 6.48438 20.3397 6.11036Z" fill="white"/>
</svg>
