<svg width="73" height="20" viewBox="0 0 73 20" fill="none" xmlns="http://www.w3.org/2000/svg">
<path d="M0 14.9313V13.7548H3.50742V14.9313C3.50742 15.4224 3.65769 15.8255 3.95822 16.1407C4.26608 16.4559 4.7462 16.6135 5.39857 16.6135C6.64468 16.6135 7.26773 16.0088 7.26773 14.7993V0L10.9181 3.03463V15.0192C10.9181 16.4706 10.4196 17.6654 9.42276 18.6036C8.42587 19.5345 7.1028 20 5.45355 20C3.68701 20 2.33462 19.5345 1.39637 18.6036C0.465457 17.6654 0 16.4413 0 14.9313Z" fill="#1C1B1F"/>
<path d="M19.0764 20C17.3758 20 15.9758 19.4429 14.8763 18.3288C13.7841 17.2073 13.238 15.7816 13.238 14.0517C13.238 12.2998 13.7731 10.8668 14.8433 9.75261C15.9208 8.63845 17.3099 8.08136 19.0104 8.08136C20.777 8.08136 22.1734 8.62012 23.1996 9.69764C24.2331 10.7752 24.7499 12.2338 24.7499 14.0737V14.9533L16.5805 14.9973C16.6758 15.7376 16.936 16.2873 17.3612 16.6465C17.7863 17.0057 18.3801 17.1853 19.1424 17.1853C19.7948 17.1853 20.3372 17.0717 20.7697 16.8444C21.2095 16.6172 21.4917 16.302 21.6163 15.8988H24.7938C24.5886 17.145 23.9692 18.1418 22.9357 18.8895C21.9021 19.6298 20.6157 20 19.0764 20ZM19.0324 10.8961C18.3434 10.8961 17.8047 11.0537 17.4162 11.3689C17.0277 11.6841 16.7638 12.1789 16.6245 12.8532H21.3084C21.3084 12.2522 21.1032 11.7757 20.6927 11.4239C20.2822 11.072 19.7288 10.8961 19.0324 10.8961Z" fill="#1C1B1F"/>
<path d="M28.774 19.7031L25.1457 7.03683L28.796 8.4442L29.8296 12.1165C30.1301 13.1721 30.3647 14.2386 30.5333 15.3161C30.6725 14.4512 30.9437 13.3846 31.3469 12.1165L32.4904 8.4442H36.0528L37.1083 12.1165C37.5114 13.5312 37.768 14.5978 37.878 15.3161C37.9586 14.7957 38.2188 13.7292 38.6586 12.1165L39.7471 8.4442L43.4085 7.03683L39.4722 19.7031H36.2507L35.1732 16.1187C34.6601 14.4255 34.3522 13.2124 34.2496 12.4794C34.1176 13.1904 33.7805 14.4292 33.238 16.1957L32.1495 19.7031H28.774Z" fill="#1C1B1F"/>
<path d="M49.5987 20C47.8981 20 46.4981 19.4429 45.3986 18.3288C44.3064 17.2073 43.7603 15.7816 43.7603 14.0517C43.7603 12.2998 44.2954 10.8668 45.3656 9.75261C46.4431 8.63845 47.8321 8.08136 49.5327 8.08136C51.2992 8.08136 52.6956 8.62012 53.7218 9.69764C54.7554 10.7752 55.2721 12.2338 55.2721 14.0737V14.9533L47.1028 14.9973C47.1981 15.7376 47.4583 16.2873 47.8834 16.6465C48.3086 17.0057 48.9023 17.1853 49.6646 17.1853C50.317 17.1853 50.8594 17.0717 51.2919 16.8444C51.7317 16.6172 52.0139 16.302 52.1385 15.8988H55.3161C55.1109 17.145 54.4915 18.1418 53.4579 18.8895C52.4244 19.6298 51.138 20 49.5987 20ZM49.5547 10.8961C48.8657 10.8961 48.3269 11.0537 47.9384 11.3689C47.5499 11.6841 47.286 12.1789 47.1468 12.8532H51.8307C51.8307 12.2522 51.6254 11.7757 51.2149 11.4239C50.8045 11.072 50.251 10.8961 49.5547 10.8961Z" fill="#1C1B1F"/>
<path d="M60.7916 19.7031H57.3282V2.72677L60.7916 0V19.7031Z" fill="#1C1B1F"/>
<path d="M62.5838 16.1407H65.8714C65.8933 16.5439 66.0509 16.8554 66.3441 17.0753C66.6373 17.2952 67.0442 17.4052 67.5646 17.4052C68.085 17.4052 68.4772 17.3209 68.7411 17.1523C69.0049 16.9764 69.1369 16.7381 69.1369 16.4376C69.1369 15.9905 68.7997 15.6973 68.1253 15.558L66.0473 15.1072C64.9844 14.8726 64.2038 14.5025 63.7053 13.9967C63.2142 13.4836 62.9687 12.7433 62.9687 11.7757C62.9687 10.6322 63.4048 9.73062 64.2771 9.07092C65.1567 8.41121 66.2892 8.08136 67.6745 8.08136C68.9866 8.08136 70.0531 8.4332 70.8741 9.13689C71.6951 9.83324 72.1055 10.7495 72.1055 11.8857H68.818C68.818 11.4972 68.7044 11.1893 68.4772 10.9621C68.2499 10.7275 67.9311 10.6102 67.5206 10.6102C67.1248 10.6102 66.8096 10.7019 66.575 10.8851C66.3478 11.0684 66.2342 11.3139 66.2342 11.6218C66.2342 12.1056 66.6373 12.4354 67.4436 12.6113L69.5437 13.0621C70.5039 13.2747 71.2186 13.6192 71.6877 14.0957C72.1642 14.5721 72.4024 15.2465 72.4024 16.1187C72.4024 17.3062 71.9406 18.2518 71.017 18.9555C70.1008 19.6518 68.9023 20 67.4217 20C65.9483 20 64.7718 19.6445 63.8922 18.9335C63.02 18.2225 62.5838 17.2916 62.5838 16.1407Z" fill="#1C1B1F"/>
</svg>
