<svg width="87" height="24" viewBox="0 0 87 24" fill="none" xmlns="http://www.w3.org/2000/svg">
<path d="M0 17.9175V16.5058H4.20891V17.9175C4.20891 18.5069 4.38923 18.9907 4.74986 19.3689C5.1193 19.7471 5.69544 19.9362 6.47828 19.9362C7.97361 19.9362 8.72128 19.2106 8.72128 17.7592V0L13.1017 3.64156V18.0231C13.1017 19.7647 12.5036 21.1985 11.3073 22.3244C10.1111 23.4415 8.52337 24 6.54426 24C4.42441 24 2.80154 23.4415 1.67565 22.3244C0.558549 21.1985 0 19.7295 0 17.9175Z" fill="white"/>
<path d="M22.8917 24C20.851 24 19.171 23.3315 17.8516 21.9945C16.541 20.6487 15.8857 18.9379 15.8857 16.862C15.8857 14.7598 16.5278 13.0401 17.812 11.7031C19.105 10.3661 20.7719 9.69764 22.8125 9.69764C24.9324 9.69764 26.608 10.3441 27.8395 11.6372C29.0797 12.9302 29.6998 14.6806 29.6998 16.8884V17.9439L19.8966 17.9967C20.011 18.8851 20.3233 19.5448 20.8334 19.9758C21.3436 20.4068 22.0561 20.6223 22.9709 20.6223C23.7537 20.6223 24.4046 20.486 24.9236 20.2133C25.4513 19.9406 25.79 19.5624 25.9395 19.0786H29.7526C29.5063 20.5739 28.7631 21.7702 27.5228 22.6674C26.2826 23.5558 24.7389 24 22.8917 24ZM22.8389 13.0753C22.0121 13.0753 21.3656 13.2644 20.8994 13.6427C20.4332 14.0209 20.1165 14.6146 19.9494 15.4239H25.5701C25.5701 14.7026 25.3238 14.1308 24.8312 13.7086C24.3386 13.2864 23.6745 13.0753 22.8389 13.0753Z" fill="white"/>
<path d="M34.5289 23.6438L30.1748 8.4442L34.5553 10.133L35.7955 14.5399C36.1561 15.8065 36.4376 17.0863 36.6399 18.3793C36.807 17.3414 37.1325 16.0616 37.6163 14.5399L38.9885 10.133H43.2633L44.53 14.5399C45.0137 16.2375 45.3216 17.5173 45.4535 18.3793C45.5503 17.7548 45.8626 16.475 46.3903 14.5399L47.6965 10.133L52.0902 8.4442L47.3667 23.6438H43.5008L42.2078 19.3425C41.5921 17.3106 41.2227 15.8549 41.0995 14.9753C40.9412 15.8285 40.5366 17.315 39.8857 19.4349L38.5794 23.6438H34.5289Z" fill="white"/>
<path d="M59.5184 24C57.4777 24 55.7977 23.3315 54.4783 21.9945C53.1677 20.6487 52.5124 18.9379 52.5124 16.862C52.5124 14.7598 53.1545 13.0401 54.4387 11.7031C55.7317 10.3661 57.3986 9.69764 59.4393 9.69764C61.5591 9.69764 63.2347 10.3441 64.4662 11.6372C65.7064 12.9302 66.3266 14.6806 66.3266 16.8884V17.9439L56.5234 17.9967C56.6377 18.8851 56.95 19.5448 57.4601 19.9758C57.9703 20.4068 58.6828 20.6223 59.5976 20.6223C60.3804 20.6223 61.0313 20.486 61.5503 20.2133C62.0781 19.9406 62.4167 19.5624 62.5662 19.0786H66.3793C66.133 20.5739 65.3898 21.7702 64.1495 22.6674C62.9093 23.5558 61.3656 24 59.5184 24ZM59.4656 13.0753C58.6388 13.0753 57.9923 13.2644 57.5261 13.6427C57.0599 14.0209 56.7433 14.6146 56.5761 15.4239H62.1968C62.1968 14.7026 61.9505 14.1308 61.4579 13.7086C60.9654 13.2864 60.3013 13.0753 59.4656 13.0753Z" fill="white"/>
<path d="M72.95 23.6438H68.7938V3.27213L72.95 0V23.6438Z" fill="white"/>
<path d="M75.1006 19.3689H79.0456C79.072 19.8527 79.2611 20.2265 79.613 20.4904C79.9648 20.7543 80.453 20.8862 81.0775 20.8862C81.702 20.8862 82.1726 20.785 82.4893 20.5827C82.8059 20.3716 82.9643 20.0858 82.9643 19.7251C82.9643 19.1886 82.5597 18.8367 81.7504 18.6696L79.2567 18.1286C77.9813 17.8472 77.0445 17.403 76.4464 16.796C75.8571 16.1803 75.5624 15.2919 75.5624 14.1308C75.5624 12.7587 76.0858 11.6767 77.1325 10.8851C78.188 10.0935 79.547 9.69764 81.2095 9.69764C82.784 9.69764 84.0638 10.1198 85.0489 10.9643C86.0341 11.7999 86.5267 12.8994 86.5267 14.2628H82.5816C82.5816 13.7966 82.4453 13.4272 82.1726 13.1545C81.8999 12.873 81.5173 12.7323 81.0247 12.7323C80.5498 12.7323 80.1715 12.8422 79.8901 13.0621C79.6174 13.282 79.481 13.5767 79.481 13.9461C79.481 14.5267 79.9648 14.9225 80.9324 15.1336L83.4525 15.6745C84.6047 15.9296 85.4623 16.343 86.0253 16.9148C86.597 17.4865 86.8829 18.2958 86.8829 19.3425C86.8829 20.7675 86.3288 21.9021 85.2205 22.7466C84.1209 23.5822 82.6828 24 80.906 24C79.138 24 77.7262 23.5734 76.6707 22.7202C75.624 21.867 75.1006 20.7499 75.1006 19.3689Z" fill="white"/>
</svg>
