<svg width="72" height="91" viewBox="0 0 72 91" fill="none" xmlns="http://www.w3.org/2000/svg">
<path d="M9.1625 90.2292C6.80833 90.2292 4.80729 89.4052 3.15938 87.7573C1.51146 86.1094 0.6875 84.1083 0.6875 81.7542V28.0792C0.6875 25.725 1.51146 23.724 3.15938 22.076C4.80729 20.4281 6.80833 19.6042 9.1625 19.6042H18.3438V18.4271C18.3438 13.5618 20.0701 9.40277 23.5229 5.94999C26.9757 2.49722 31.1347 0.770828 36 0.770828C40.8653 0.770828 45.0243 2.49722 48.4771 5.94999C51.9299 9.40277 53.6562 13.5618 53.6562 18.4271V19.6042H62.8375C65.1917 19.6042 67.1927 20.4281 68.8406 22.076C70.4885 23.724 71.3125 25.725 71.3125 28.0792V81.7542C71.3125 84.1083 70.4885 86.1094 68.8406 87.7573C67.1927 89.4052 65.1917 90.2292 62.8375 90.2292H9.1625ZM21.875 40.7917C22.8951 40.7917 23.7395 40.4574 24.4081 39.7888C25.0735 39.1233 25.4062 38.2805 25.4062 37.2604V26.6667H18.3438V37.2604C18.3438 38.2805 18.678 39.1233 19.3466 39.7888C20.0121 40.4574 20.8549 40.7917 21.875 40.7917ZM25.4062 19.6042H46.5938V18.4271C46.5938 15.4451 45.5736 12.934 43.5333 10.8937C41.4931 8.85347 38.9819 7.83333 36 7.83333C33.0181 7.83333 30.5069 8.85347 28.4667 10.8937C26.4264 12.934 25.4062 15.4451 25.4062 18.4271V19.6042ZM50.125 40.7917C51.1451 40.7917 51.9895 40.4574 52.6581 39.7888C53.3235 39.1233 53.6562 38.2805 53.6562 37.2604V26.6667H46.5938V37.2604C46.5938 38.2805 46.928 39.1233 47.5966 39.7888C48.2621 40.4574 49.1049 40.7917 50.125 40.7917Z" fill="#1C1B1F" fill-opacity="0.1"/>
</svg>
