<svg width="18" height="19" viewBox="0 0 18 19" fill="none" xmlns="http://www.w3.org/2000/svg">
<path d="M16.3125 4.97013C15.7746 5.20216 15.1893 5.36915 14.5864 5.43419C15.2123 5.0623 15.6811 4.47477 15.9047 3.78184C15.3173 4.13128 14.6738 4.37631 14.0028 4.50606C13.7223 4.20623 13.3831 3.96736 13.0063 3.80436C12.6294 3.64135 12.2231 3.55769 11.8125 3.5586C10.1514 3.5586 8.81546 4.90509 8.81546 6.55743C8.81546 6.78947 8.84359 7.0215 8.88929 7.24474C6.40199 7.11466 4.18364 5.92638 2.70884 4.10704C2.44011 4.56603 2.29929 5.08865 2.30102 5.62052C2.30102 6.66114 2.83012 7.57872 3.63696 8.11837C3.16148 8.09965 2.69713 7.96896 2.28169 7.73693V7.77384C2.28169 9.23107 3.31176 10.4387 4.68461 10.7164C4.42685 10.7834 4.16168 10.8176 3.89536 10.8184C3.70024 10.8184 3.51567 10.799 3.32934 10.7727C3.70903 11.961 4.81469 12.824 6.13129 12.8522C5.10121 13.659 3.81098 14.1336 2.41001 14.1336C2.15864 14.1336 1.92661 14.1248 1.68579 14.0967C3.01469 14.9492 4.59145 15.4414 6.28949 15.4414C11.802 15.4414 14.8184 10.8746 14.8184 6.91075C14.8184 6.78068 14.8184 6.6506 14.8096 6.52052C15.3932 6.09337 15.9047 5.56427 16.3125 4.97013Z" fill="white"/>
</svg>
