<svg width="9" height="9" viewBox="0 0 9 9" fill="none" xmlns="http://www.w3.org/2000/svg">
<path d="M6.51548 4.93538C6.54748 4.67138 6.57148 4.40738 6.57148 4.13538C6.57148 3.86338 6.54748 3.59938 6.51548 3.33538H7.86748C7.93148 3.59138 7.97148 3.85938 7.97148 4.13538C7.97148 4.41138 7.93148 4.67938 7.86748 4.93538H6.51548ZM5.80748 7.15938C6.04748 6.71538 6.23148 6.23538 6.35948 5.73538H7.53948C7.15195 6.40269 6.53713 6.90817 5.80748 7.15938ZM5.70748 4.93538H3.83548C3.79548 4.67138 3.77148 4.40738 3.77148 4.13538C3.77148 3.86338 3.79548 3.59538 3.83548 3.33538H5.70748C5.74348 3.59538 5.77148 3.86338 5.77148 4.13538C5.77148 4.40738 5.74348 4.67138 5.70748 4.93538ZM4.77148 7.31938C4.43948 6.83938 4.17148 6.30738 4.00748 5.73538H5.53548C5.37148 6.30738 5.10348 6.83938 4.77148 7.31938ZM3.17148 2.53538H2.00348C2.38703 1.86626 3.0014 1.35997 3.73148 1.11138C3.49148 1.55538 3.31148 2.03538 3.17148 2.53538ZM2.00348 5.73538H3.17148C3.31148 6.23538 3.49148 6.71538 3.73148 7.15938C3.00293 6.90804 2.38942 6.40246 2.00348 5.73538ZM1.67548 4.93538C1.61148 4.67938 1.57148 4.41138 1.57148 4.13538C1.57148 3.85938 1.61148 3.59138 1.67548 3.33538H3.02748C2.99548 3.59938 2.97148 3.86338 2.97148 4.13538C2.97148 4.40738 2.99548 4.67138 3.02748 4.93538H1.67548ZM4.77148 0.947376C5.10348 1.42738 5.37148 1.96338 5.53548 2.53538H4.00748C4.17148 1.96338 4.43948 1.42738 4.77148 0.947376ZM7.53948 2.53538H6.35948C6.23429 2.03996 6.04891 1.56173 5.80748 1.11138C6.54348 1.36338 7.15548 1.87138 7.53948 2.53538ZM4.77148 0.135376C2.55948 0.135376 0.771484 1.93538 0.771484 4.13538C0.771484 5.19624 1.19291 6.21366 1.94306 6.9638C2.31449 7.33524 2.75545 7.62988 3.24075 7.83089C3.72605 8.03191 4.2462 8.13538 4.77148 8.13538C5.83235 8.13538 6.84977 7.71395 7.59991 6.9638C8.35006 6.21366 8.77148 5.19624 8.77148 4.13538C8.77148 3.61009 8.66802 3.08994 8.467 2.60464C8.26598 2.11934 7.97135 1.67838 7.59991 1.30695C7.22848 0.935515 6.78752 0.640877 6.30222 0.439858C5.81692 0.238839 5.29677 0.135376 4.77148 0.135376Z" fill="white"/>
</svg>
